<svg width="1980" height="332" viewBox="0 0 1980 332" fill="none" xmlns="http://www.w3.org/2000/svg">
<path d="M-1.5 0C8.74588 0 1981 216.5 1981 216.5L1980 332L-1.5 115.421V0Z" fill="#CDB1F4"/>
<path d="M228.97 54.3445V54.3942L225.853 54.0459L212.243 88.5342L211.308 88.4347L206.451 51.8561L204.009 51.5824V51.5327L189.152 49.8655L183.697 94.2823L193.775 95.4269L197.827 62.3569L198.814 62.4565L203.594 96.5218L218.087 98.1641L230.996 66.0894L231.983 66.189L227.931 99.2589L238.009 100.404L243.464 55.9868L228.97 54.3445Z" stroke="white" stroke-width="0.75" stroke-miterlimit="10"/>
<path d="M266.606 93.6351C258.58 92.7393 253.152 88.1857 254.243 79.3521C255.334 70.5185 261.697 67.3086 269.723 68.2044C277.749 69.1002 283.152 73.8031 282.087 82.4874C281.048 91.0224 274.632 94.5309 266.606 93.6351ZM270.944 58.3505C257.463 56.8327 246.165 63.6507 244.372 78.2324C242.554 93.1126 251.905 101.971 265.412 103.489C278.892 105.007 290.191 98.1888 291.983 83.6072C293.775 69.0006 284.425 59.8684 270.944 58.3505Z" stroke="white" stroke-width="0.75" stroke-miterlimit="10"/>
<path d="M316.374 81.9401C308.764 79.8748 306.14 78.6804 306.426 76.3165C306.686 74.1765 308.79 71.6633 316.608 72.5591C326.192 73.6291 327.05 78.3818 326.686 81.4673C330.244 81.8655 337.257 82.6617 337.257 82.6617C338.089 75.8935 335.673 65.8406 317.673 63.8001C302.556 62.0832 296.816 68.8017 296.036 75.0723C295.049 83.1843 300.92 86.6431 314.556 90.1765C323.491 92.4907 326.582 93.3616 326.218 96.3973C325.803 99.8312 322.426 101.175 314.79 100.304C308.764 99.6322 302.738 97.8903 303.569 91.1718C297.855 90.5249 295.309 90.2512 293.231 90.0023C292.712 94.3071 291.205 106.425 314.062 109.013C327.621 110.531 335.621 108.64 336.972 97.6166C338.193 87.514 326.556 84.727 316.374 81.9401Z" stroke="white" stroke-width="0.75" stroke-miterlimit="10"/>
<path d="M344.347 67.3584L338.893 111.775L348.997 112.895L351.178 95.0536L379.205 98.2138L380.27 89.4797L352.243 86.3195L353.36 77.2122L382.763 80.5217L383.828 71.7876L344.347 67.3584Z" stroke="white" stroke-width="0.75" stroke-miterlimit="10"/>
<path d="M416.14 98.5621C415.542 103.414 414.763 111.352 404.114 110.158C393.568 108.963 394.01 102.842 394.841 96.1485L397.646 73.3304L387.568 72.1858L384.633 96.0987C383.802 102.942 382.113 116.603 403.049 118.967C423.984 121.33 425.75 106.898 426.503 100.851C427.257 94.7799 429.438 76.9136 429.438 76.9136L418.945 75.7192C418.919 75.7441 416.737 93.7099 416.14 98.5621Z" stroke="white" stroke-width="0.75" stroke-miterlimit="10"/>
<path d="M443.128 78.4813L433.05 77.3367L427.596 121.778L465.7 126.058L466.791 117.324L438.765 114.164L443.128 78.4813Z" stroke="white" stroke-width="0.75" stroke-miterlimit="10"/>
<path d="M474.869 82.0645L469.414 126.481L479.492 127.601L481.674 109.76L509.7 112.92L510.765 104.186L482.739 101.026L483.882 91.9183L513.259 95.2278L514.324 86.4937L474.869 82.0645Z" stroke="white" stroke-width="0.75" stroke-miterlimit="10"/>
<path d="M518.041 86.8801L512.586 131.316L522.673 132.453L528.128 88.0165L518.041 86.8801Z" stroke="white" stroke-width="0.75" stroke-miterlimit="10"/>
<path d="M542.505 89.6788L532.427 88.5342L526.973 132.976L565.077 137.256L566.142 128.522L538.116 125.362L542.505 89.6788Z" stroke="white" stroke-width="0.75" stroke-miterlimit="10"/>
<path d="M614.039 97.741V97.7907L610.922 97.4424L597.311 131.931L596.376 131.831L591.519 95.2526L589.077 94.9789V94.9292L574.22 93.262L568.766 137.679L578.844 138.799L582.896 105.753L583.883 105.853L588.662 139.918L603.155 141.561L616.065 109.486L617.052 109.585L613 142.655L623.078 143.8L628.532 99.3584L614.039 97.741Z" stroke="white" stroke-width="0.75" stroke-miterlimit="10"/>
<path d="M632.455 99.8064L627 144.223L637.078 145.368L665.104 148.528L666.195 139.694L638.169 136.534L639.26 127.526L667.286 130.687L668.351 121.953L640.351 118.792L641.468 109.685L669.494 112.845L670.559 104.111L632.455 99.8064Z" stroke="white" stroke-width="0.75" stroke-miterlimit="10"/>
<path d="M706.481 140.466L705.286 140.341L688.896 106.226L688.013 106.127V106.077L674.376 104.534L668.922 148.951L679 150.096L682.922 118.22L684.091 118.344L700.481 152.509L715.026 154.152L720.481 109.735L710.377 108.59L706.481 140.466Z" stroke="white" stroke-width="0.75" stroke-miterlimit="10"/>
<path d="M722.975 118.966L740.507 120.932L736.118 156.54L746.222 157.685L750.585 122.077L768.092 124.043L769.183 115.234L724.066 110.133L722.975 118.966Z" stroke="white" stroke-width="0.75" stroke-miterlimit="10"/>
<path d="M844.613 123.52V123.57L841.496 123.221L827.886 157.735L826.976 157.61L822.093 121.032L819.652 120.758V120.708L804.794 119.041L799.34 163.458L809.444 164.602L813.496 131.532L814.483 131.657L819.262 165.697L833.756 167.34L846.665 135.265L847.626 135.389L843.574 168.459L853.652 169.579L859.107 125.162L844.613 123.52Z" stroke="black" stroke-miterlimit="10"/>
<path d="M882.249 162.811C874.223 161.915 868.794 157.361 869.885 148.528C870.976 139.694 877.34 136.484 885.366 137.38C893.392 138.276 898.794 142.979 897.73 151.663C896.691 160.198 890.301 163.732 882.249 162.811ZM886.587 127.526C873.106 126.008 861.807 132.826 860.015 147.408C858.197 162.288 867.547 171.147 881.054 172.665C894.535 174.183 905.833 167.365 907.626 152.783C909.418 138.176 900.093 129.044 886.587 127.526Z" stroke="black" stroke-miterlimit="10"/>
<path d="M932.013 151.116C924.402 149.051 921.779 147.856 922.065 145.492C922.324 143.352 924.428 140.839 932.247 141.735C941.831 142.805 942.688 147.558 942.325 150.643C945.857 151.041 952.896 151.838 952.896 151.838C953.727 145.069 951.312 135.016 933.312 132.976C918.195 131.259 912.454 137.977 911.675 144.248C910.688 152.36 916.558 155.819 930.195 159.352C939.13 161.666 942.221 162.537 941.857 165.573C941.441 169.007 938.065 170.351 930.428 169.48C924.402 168.808 918.376 167.066 919.208 160.348C913.493 159.701 910.948 159.427 908.87 159.178C908.35 163.483 906.844 175.601 929.701 178.189C943.26 179.707 951.26 177.816 952.61 166.792C953.857 156.69 942.221 153.903 932.013 151.116Z" stroke="black" stroke-miterlimit="10"/>
<path d="M960.013 136.534L954.559 180.951L964.637 182.096L966.818 164.254L994.871 167.414L995.936 158.68L967.909 155.52L969.026 146.388L998.429 149.722L999.494 140.988L960.013 136.534Z" stroke="black" stroke-miterlimit="10"/>
<path d="M1031.78 167.738C1031.18 172.59 1030.41 180.528 1019.76 179.334C1009.21 178.139 1009.65 172.018 1010.48 165.324L1013.29 142.506L1003.21 141.362L1000.28 165.274C999.444 172.117 997.756 185.778 1018.69 188.142C1039.63 190.506 1041.39 176.074 1042.15 170.027C1042.9 163.956 1045.08 146.089 1045.08 146.089L1034.59 144.895C1034.59 144.945 1032.38 162.911 1031.78 167.738Z" stroke="black" stroke-miterlimit="10"/>
<path d="M1058.79 147.657L1048.72 146.537L1043.26 190.954L1081.37 195.234L1082.43 186.525L1054.4 183.365L1058.79 147.657Z" stroke="black" stroke-miterlimit="10"/>
<path d="M1090.51 151.24L1085.05 195.657L1095.13 196.802L1097.34 178.96L1125.37 182.12L1126.43 173.386L1098.41 170.226L1099.52 161.094L1128.93 164.428L1129.99 155.694L1090.51 151.24Z" stroke="black" stroke-miterlimit="10"/>
<path d="M1133.67 156.047L1128.22 200.483L1138.31 201.62L1143.76 157.183L1133.67 156.047Z" stroke="black" stroke-miterlimit="10"/>
<path d="M1158.15 158.855L1148.07 157.735L1142.61 202.152L1180.72 206.456L1181.81 197.722L1153.78 194.562L1158.15 158.855Z" stroke="black" stroke-miterlimit="10"/>
<path d="M1229.68 166.917V166.967L1226.56 166.618L1212.95 201.106L1212.04 201.007L1207.16 164.428L1204.72 164.155V164.105L1189.86 162.438L1184.41 206.855L1194.51 207.999L1198.56 174.929L1199.55 175.054L1204.33 209.094L1218.82 210.736L1231.71 178.662L1232.69 178.786L1228.64 211.831L1238.72 212.976L1244.17 168.559L1229.68 166.917Z" stroke="black" stroke-miterlimit="10"/>
<path d="M1248.1 169.007L1242.64 213.424L1252.72 214.544V214.569L1280.74 217.704L1281.84 208.87L1253.81 205.71L1254.93 196.702L1282.95 199.862L1284.02 191.128L1255.99 187.968L1257.11 178.861L1285.13 182.021L1286.2 173.287L1248.1 169.007Z" stroke="black" stroke-miterlimit="10"/>
<path d="M1322.12 209.666L1320.93 209.517L1304.54 175.402L1303.65 175.303V175.253L1290.04 173.735L1284.59 218.152L1294.67 219.271L1298.59 187.396L1299.73 187.545L1316.15 221.71L1330.67 223.352L1336.12 178.911L1326.04 177.791L1322.12 209.666Z" stroke="black" stroke-miterlimit="10"/>
<path d="M1338.64 188.142L1356.15 190.108L1351.78 225.716L1361.86 226.861L1366.23 191.253L1383.76 193.219L1384.85 184.41L1339.71 179.334L1338.64 188.142Z" stroke="black" stroke-miterlimit="10"/>
<path d="M1458.38 194.936L1458.36 194.96L1455.24 194.612L1441.65 229.125L1440.72 229.026L1435.84 192.422L1433.39 192.149V192.124L1418.54 190.432L1413.08 234.873L1423.19 235.993L1427.24 202.923L1428.22 203.048L1433 237.113L1447.5 238.73L1460.41 206.68L1461.39 206.78L1457.32 239.85L1467.39 240.995L1472.85 196.553L1458.38 194.936Z" stroke="white" stroke-width="0.75" stroke-miterlimit="10"/>
<path d="M1496.02 234.226C1487.99 233.331 1482.56 228.777 1483.65 219.943C1484.74 211.11 1491.11 207.9 1499.13 208.796C1507.16 209.691 1512.56 214.394 1511.5 223.079C1510.43 231.614 1504.04 235.122 1496.02 234.226ZM1500.33 198.917C1486.85 197.399 1475.55 204.217 1473.76 218.799C1471.94 233.679 1481.29 242.537 1494.8 244.055C1508.28 245.573 1519.58 238.755 1521.37 224.174C1523.16 209.592 1513.84 200.435 1500.33 198.917Z" stroke="white" stroke-width="0.75" stroke-miterlimit="10"/>
<path d="M1545.79 222.506C1538.18 220.441 1535.55 219.247 1535.84 216.883C1536.1 214.743 1538.2 212.229 1546.02 213.125C1555.6 214.195 1556.46 218.948 1556.1 222.033C1559.66 222.432 1566.67 223.228 1566.67 223.228C1567.5 216.46 1565.09 206.407 1547.09 204.366C1531.97 202.649 1526.23 209.368 1525.45 215.638C1524.46 223.75 1530.33 227.209 1543.97 230.743C1552.9 233.057 1555.99 233.928 1555.63 236.963C1555.21 240.397 1551.84 241.741 1544.2 240.87C1538.18 240.198 1532.15 238.457 1532.98 231.738C1527.27 231.091 1524.72 230.817 1522.64 230.568C1522.12 234.873 1520.62 246.991 1543.47 249.579C1557.03 251.097 1565.03 249.206 1566.38 238.183C1567.6 228.105 1555.97 225.293 1545.79 222.506Z" stroke="white" stroke-width="0.75" stroke-miterlimit="10"/>
<path d="M1573.76 207.925L1568.3 252.366L1578.38 253.486L1580.56 235.645L1608.62 238.805L1609.68 230.071L1581.66 226.911L1582.77 217.803L1612.18 221.113L1613.24 212.379L1573.76 207.925Z" stroke="white" stroke-width="0.75" stroke-miterlimit="10"/>
<path d="M1645.53 239.153C1644.93 244.005 1644.15 251.943 1633.5 250.749C1622.96 249.554 1623.4 243.433 1624.23 236.74L1627.03 213.921L1616.96 212.777L1614.02 236.69C1613.19 243.533 1611.5 257.194 1632.44 259.558C1653.37 261.921 1655.14 247.489 1655.89 241.442C1656.65 235.371 1658.83 217.505 1658.83 217.505L1648.33 216.31C1648.33 216.335 1646.13 234.301 1645.53 239.153Z" stroke="white" stroke-width="0.75" stroke-miterlimit="10"/>
<path d="M1672.54 219.072L1662.46 217.928L1657.01 262.345L1695.11 266.649L1696.18 257.915L1668.15 254.755L1672.54 219.072Z" stroke="white" stroke-width="0.75" stroke-miterlimit="10"/>
<path d="M1704.26 222.631L1698.8 267.072L1708.88 268.192L1711.09 250.351L1739.11 253.511L1740.18 244.777L1712.15 241.617L1713.27 232.509L1742.67 235.819L1743.74 227.085L1704.26 222.631Z" stroke="white" stroke-width="0.75" stroke-miterlimit="10"/>
<path d="M1747.43 227.422L1741.98 271.858L1752.06 272.995L1757.52 228.559L1747.43 227.422Z" stroke="white" stroke-width="0.75" stroke-miterlimit="10"/>
</svg>
