<svg width="125" height="28" viewBox="0 0 125 28" fill="none" xmlns="http://www.w3.org/2000/svg">
<g clip-path="url(#clip0_271_6592)">
<path d="M9.32687 16.0217H0V18.3843L7.96115 18.4108L0.0133241 26.3025L1.72214 28L9.66996 20.1049L9.69661 27.957H12.1482V18.8045L9.32687 16.0217Z" fill="#CDB1F4"/>
<path d="M14.133 0.0859375V11.9815H11.5281V3.12683H11.275L8.99322 11.9815H5.24914L2.96739 3.12683H2.71424V11.9815H0.109375V0.0859375H3.94338V0.0991731H4.57628L6.96129 9.6156H7.20112L9.58614 0.0991731H10.3922V0.0859375H14.133Z" fill="black"/>
<path d="M52.8476 8.26235C52.8476 11.1841 50.8889 11.9187 47.4213 11.9187C41.5787 11.9187 41.582 8.70574 41.582 7.56417H44.2269C44.2269 9.34105 45.8024 9.619 47.3414 9.619C49.29 9.619 50.0995 9.1723 50.0995 8.25904C50.0995 7.45828 49.29 7.31931 46.9683 6.97849C43.4274 6.45899 41.8352 5.73103 41.8352 3.57693C41.8352 1.91917 43.0743 0 46.9416 0C51.5451 0 52.4612 2.55779 52.4612 4.35122H49.7564C49.7564 3.53392 49.3899 2.32286 46.9416 2.32286C44.9464 2.32286 44.4933 3.03758 44.4933 3.60671C44.4933 4.2321 45.1929 4.46372 47.1715 4.78468C49.8296 5.21153 52.8476 5.59868 52.8476 8.26235Z" fill="black"/>
<path d="M34.2022 11.9453H21.4843C18.1433 11.9453 15.4219 9.28821 15.4219 6.02232C15.4219 2.75642 18.14 0.0993652 21.4843 0.0993652H34.2022C37.5432 0.0993652 40.2613 2.75642 40.2613 6.02232C40.2647 9.28821 37.5465 11.9453 34.2022 11.9453ZM21.4843 2.56781C19.5357 2.56781 17.9501 4.11638 17.9501 6.02232C17.9501 7.92494 19.5357 9.47351 21.4843 9.47351H34.2022C36.1508 9.47351 37.7331 7.92494 37.7331 6.02232C37.7331 4.11638 36.1475 2.56781 34.2022 2.56781H21.4843Z" fill="black"/>
<path d="M25.6439 16.0647V18.3975H18.0625V20.8361H25.2908V23.1722H18.0625V27.9437H15.4609V16.0647H25.6439Z" fill="black"/>
<path d="M34.692 16.0647H37.3968V22.4674C37.3968 24.0888 37.3968 27.9437 31.9972 27.9437C26.5977 27.9437 26.5977 24.2906 26.5977 22.4608V16.0647H29.1992V22.163C29.1992 23.9465 29.2791 25.5811 31.9972 25.5811C34.742 25.5811 34.692 23.4601 34.692 22.163C34.6887 20.8659 34.6887 16.0647 34.692 16.0647Z" fill="black"/>
<path d="M40.9336 25.6076H48.1586V27.9437H38.332V16.0647H40.9336V25.6076Z" fill="black"/>
<path d="M59.2884 16.0647V18.3975H51.707V20.8361H58.9353V23.1722H51.707V27.9437H49.1055V16.0647H59.2884Z" fill="black"/>
<path d="M62.8476 16.0647H60.2461V27.9437H62.8476V16.0647Z" fill="black"/>
<path d="M66.5507 25.6076H73.7791V27.9437H63.9492V16.0647H66.5507V25.6076Z" fill="black"/>
<path d="M88.7335 16.0647V27.9437H86.132V19.1023H85.8788L83.5971 27.9437H79.8597L77.5813 19.1023H77.3248V27.9437H74.7266V16.0647H78.5572V16.0746H79.1868L81.5685 25.5811H81.8083L84.19 16.0746H84.9961V16.0647H88.7335Z" fill="black"/>
<path d="M99.5687 16.0647V18.3975H92.3404V20.8361H99.5687V23.1689H92.3404V25.5811H99.5687V27.9437H92.3404H89.7422V16.0647H99.5687Z" fill="black"/>
<path d="M109.838 16.0647H112.439V27.9437H108.692L103.452 19.4199H103.152V27.9437H100.551V16.0647H104.068V16.0746H104.298L109.531 24.5885H109.838V16.0647Z" fill="black"/>
<path d="M113.363 16.0647H125.002V18.424H120.482V27.9437H117.883V18.424H113.363V16.0647Z" fill="black"/>
</g>
<defs>
<clipPath id="clip0_271_6592">
<rect width="125" height="28" fill="white"/>
</clipPath>
</defs>
</svg>
