<svg width="174" height="39" viewBox="0 0 174 39" fill="none" xmlns="http://www.w3.org/2000/svg">
<g clip-path="url(#clip0_268_4535)">
<path d="M12.983 22.3159H0V25.6066L11.0819 25.6435L0.0185471 36.6356L2.39722 38.9999L13.4606 28.0032L13.4977 38.94H16.9104V26.192L12.983 22.3159Z" fill="#CDB1F4"/>
<path d="M19.6732 0.119873V16.6887H16.0472V4.3554H15.6948L12.5187 16.6887H7.3069L4.13071 4.3554H3.77831V16.6887H0.152344V0.119873H5.48928V0.138308H6.37027L9.69021 13.3933H10.0241L13.344 0.138308H14.4661V0.119873H19.6732Z" fill="black"/>
<path d="M73.5644 11.5083C73.5644 15.5779 70.838 16.601 66.0111 16.601C57.8782 16.601 57.8828 12.1259 57.8828 10.5358H61.5644C61.5644 13.0108 63.7576 13.3979 65.8998 13.3979C68.6123 13.3979 69.7391 12.7757 69.7391 11.5037C69.7391 10.3883 68.6123 10.1948 65.3805 9.72004C60.4516 8.99645 58.2352 7.98251 58.2352 4.98216C58.2352 2.67313 59.9601 0 65.3434 0C71.7514 0 73.0266 3.56263 73.0266 6.06062H69.2615C69.2615 4.92224 68.7514 3.23541 65.3434 3.23541C62.566 3.23541 61.9354 4.23091 61.9354 5.02363C61.9354 5.89471 62.9091 6.21732 65.6633 6.66438C69.3635 7.25892 73.5644 7.79816 73.5644 11.5083Z" fill="black"/>
<path d="M47.6109 16.6378H29.9077C25.257 16.6378 21.4688 12.9369 21.4688 8.38801C21.4688 3.83908 25.2524 0.138184 29.9077 0.138184H47.6109C52.2616 0.138184 56.0453 3.83908 56.0453 8.38801C56.0499 12.9369 52.2663 16.6378 47.6109 16.6378ZM29.9077 3.57638C27.1952 3.57638 24.9881 5.73332 24.9881 8.38801C24.9881 11.0381 27.1952 13.195 29.9077 13.195H47.6109C50.3235 13.195 52.5259 11.0381 52.5259 8.38801C52.5259 5.73332 50.3188 3.57638 47.6109 3.57638H29.9077Z" fill="black"/>
<path d="M35.6942 22.376V25.6252H25.1409V29.0219H35.2027V32.2758H25.1409V38.9217H21.5195V22.376H35.6942Z" fill="black"/>
<path d="M48.2908 22.376H52.0559V31.2941C52.0559 33.5524 52.0559 38.9217 44.5397 38.9217C37.0234 38.9217 37.0234 33.8336 37.0234 31.2849V22.376H40.6448V30.8701C40.6448 33.3542 40.756 35.631 44.5397 35.631C48.3604 35.631 48.2908 32.6767 48.2908 30.8701C48.2862 29.0634 48.2862 22.376 48.2908 22.376Z" fill="black"/>
<path d="M56.9768 35.6679H67.034V38.9217H53.3555V22.376H56.9768V35.6679Z" fill="black"/>
<path d="M82.5301 22.376V25.6252H71.9768V29.0219H82.0386V32.2758H71.9768V38.9217H68.3555V22.376H82.5301Z" fill="black"/>
<path d="M87.4807 22.376H83.8594V38.9217H87.4807V22.376Z" fill="black"/>
<path d="M92.637 35.6679H102.699V38.9217H89.0156V22.376H92.637V35.6679Z" fill="black"/>
<path d="M123.521 22.376V38.9217H119.9V26.6069H119.547L116.371 38.9217H111.169L107.997 26.6069H107.64V38.9217H104.023V22.376H109.356V22.3898H110.232L113.547 35.631H113.881L117.197 22.3898H118.319V22.376H123.521Z" fill="black"/>
<path d="M138.596 22.376V25.6252H128.535V29.0219H138.596V32.2712H128.535V35.631H138.596V38.9217H128.535H124.918V22.376H138.596Z" fill="black"/>
<path d="M152.892 22.376H156.514V38.9217H151.297L144.003 27.0493H143.586V38.9217H139.965V22.376H144.861V22.3898H145.181L152.466 34.2483H152.892V22.376Z" fill="black"/>
<path d="M157.801 22.376H174.002V25.6621H167.71V38.9217H164.093V25.6621H157.801V22.376Z" fill="black"/>
</g>
<defs>
<clipPath id="clip0_268_4535">
<rect width="174" height="39" fill="white"/>
</clipPath>
</defs>
</svg>
